<svg xmlns="http://www.w3.org/2000/svg" xmlns:xlink="http://www.w3.org/1999/xlink" width="1024" height="1024" viewBox="0 0 1024 1024">
  <defs>
    <clipPath id="clip-iPhone_14_Pro_7">
      <rect width="1024" height="1024"/>
    </clipPath>
  </defs>
  <g id="iPhone_14_Pro_7" data-name="iPhone 14 Pro – 7" clip-path="url(#clip-iPhone_14_Pro_7)">
    <rect width="1024" height="1024" fill="#071018"/>
    <g id="Group_26" data-name="Group 26" transform="translate(52.465 61.756)">
      <path id="Path_95" data-name="Path 95" d="M252.069,811.858c-1.83-23.031-17.688-42.585-45.069-42.852" transform="translate(130.58 35.812)" fill="none" stroke="#855e99" stroke-linejoin="round" stroke-miterlimit="10" stroke-width="4.33" opacity="0"/>
      <path id="Path_165" data-name="Path 165" d="M361.5,77.8q14.541,0,24.194-9.8a32.949,32.949,0,0,0,9.653-24.05,32.672,32.672,0,0,0-9.83-24.017,33.858,33.858,0,0,0-47.871.162,32.561,32.561,0,0,0-9.992,23.855,32.672,32.672,0,0,0,9.83,24.017A32.672,32.672,0,0,0,361.5,77.8ZM214.061,162.638q14.546,0,24.212-9.668t9.666-24.179a33.757,33.757,0,0,0-57.732-23.885,33.718,33.718,0,0,0-.015,47.9A32.814,32.814,0,0,0,214.061,162.638Zm294.837,0a32.922,32.922,0,0,0,24.05-9.668q9.8-9.668,9.8-24.179a32.468,32.468,0,0,0-9.975-24.047,33.938,33.938,0,0,0-57.72,24.047A33.512,33.512,0,0,0,508.9,162.638ZM66.954,248.746A32.924,32.924,0,0,0,91,239.078q9.8-9.668,9.8-24.179A32.6,32.6,0,0,0,90.824,191a32.574,32.574,0,0,0-23.87-9.975,32.53,32.53,0,0,0-23.824,9.99,33.694,33.694,0,0,0,23.824,57.735ZM361.5,260.287q19.179,0,32.3-13.12t13.12-32.268A45.625,45.625,0,0,0,361.5,169.481q-18.5,0-31.959,13.444T316.079,214.9A45.373,45.373,0,0,0,361.5,260.287Zm293.539-11.541a32.888,32.888,0,0,0,24.017-9.668q9.8-9.668,9.8-24.179a33.562,33.562,0,0,0-33.817-33.878,32.332,32.332,0,0,0-23.855,10.137q-9.992,10.137-9.992,23.741a33.516,33.516,0,0,0,33.847,33.847Zm-440.975,97q19.179,0,32.3-13.089t13.122-32.334A45.382,45.382,0,0,0,214.061,254.9q-18.206,0-31.8,13.462t-13.591,31.957a45.382,45.382,0,0,0,45.388,45.423Zm294.837,0a44.036,44.036,0,0,0,32.157-13.122q13.267-13.122,13.267-32.3A45.661,45.661,0,0,0,508.9,254.9q-18.495,0-31.957,13.462t-13.462,31.957A45.352,45.352,0,0,0,508.9,345.746ZM66.954,419.953A33.462,33.462,0,0,0,100.8,386.106a32.428,32.428,0,0,0-9.977-24.017,32.814,32.814,0,0,0-23.87-9.83,32.526,32.526,0,0,0-23.824,9.992,33.678,33.678,0,0,0,23.824,57.7ZM361.5,439.173q22.19,0,37.628-15.438t15.439-37.628a51.125,51.125,0,0,0-15.616-37.484Q383.332,333,361.5,333a50.836,50.836,0,0,0-26.551,7.225,55.028,55.028,0,0,0-19.326,19.326A53.086,53.086,0,0,0,361.5,439.173Zm293.539-19.22a32.888,32.888,0,0,0,24.017-9.668q9.8-9.668,9.8-24.179a33.965,33.965,0,1,0-33.817,33.847ZM214.061,517.308q19.179,0,32.3-13.267a45.511,45.511,0,0,0-32.3-77.575q-18.495,0-31.941,13.447T168.673,471.89a45.63,45.63,0,0,0,45.388,45.418Zm294.837,0a45.421,45.421,0,0,0,0-90.842q-18.53,0-31.974,13.447T463.479,471.89A45.347,45.347,0,0,0,508.9,517.308ZM66.954,590.866a32.925,32.925,0,0,0,24.08-9.65q9.767-9.65,9.767-24.2a32.58,32.58,0,0,0-9.962-23.885,32.58,32.58,0,0,0-23.885-9.962,32.277,32.277,0,0,0-23.842,10.139q-9.975,10.14-9.975,23.708a33.533,33.533,0,0,0,33.817,33.847ZM361.5,602.443q19.179,0,32.3-13.122t13.12-32.3A45.348,45.348,0,0,0,361.5,511.895q-18.5,0-31.959,13.459t-13.459,31.665A45.4,45.4,0,0,0,361.5,602.443Zm293.539-11.576q14.511,0,24.164-9.666t9.653-24.182a33.967,33.967,0,1,0-33.817,33.847Zm-440.975,86.4q14.546,0,24.212-9.8a34.705,34.705,0,0,0-.162-48.229,33.568,33.568,0,0,0-47.9.18,33.047,33.047,0,0,0-9.992,24,34.067,34.067,0,0,0,33.847,33.847Zm294.837,0a33.994,33.994,0,0,0,0-67.988,32.341,32.341,0,0,0-23.87,10.122,33.935,33.935,0,0,0-.162,47.9A32.439,32.439,0,0,0,508.9,677.268ZM361.5,762.109q14.511,0,24.179-9.668t9.668-24.179A33.965,33.965,0,1,0,361.5,762.109Z" transform="translate(98.54 65.725)" fill="#cbff37"/>
      <ellipse id="Ellipse_1" data-name="Ellipse 1" cx="53" cy="52.5" rx="53" ry="52.5" transform="translate(406.535 399.244)" fill="#8385ff"/>
    </g>
  </g>
</svg>
